# xmcd
#
# Track frame offsets:
#	150
#	27300
#	48875
#	70957
#	88157
#	113532
#	151667
#	182022
#	214842
#	237890
#	256547
#	270740
#	289017
#	311472
#
# Disc length: 4436
#
# Revision: 1
# Processed by: cddbd v1.5.1PL0 Copyright (c) Steve Scherf et al.
# Submitted via: CDex 1.50
# Normalized: r0:TDELIM( - )
#
DISCID=b411520e
DTITLE=Jazz Improv - Volume 3 Number 3
DYEAR=2003
DGENRE=Jazz
TTITLE0=Tony Monaco - Blues For T
TTITLE1=Mike Longo and The New York State of the Art Jazz Emsemble - Wee
TTITLE2=Los Hombres Calientes - Foforo Fo Firi
TTITLE3=Michael Brecker - I Can See Your Dreams
TTITLE4=Frank Glover - Steps * What Was
TTITLE5=Billy Taylor - Transformation
TTITLE6=Eric Nemeyer - Like Someone In Love
TTITLE7=Clifford Brown and Max Roach - Parisian Thoroughfare
TTITLE8=Lage Lund Quintet - Shapes and Sounds
TTITLE9=Clifford Brown - Daahoud
TTITLE10=Ralph Morgan - Daily News Blues
TTITLE11=Clifford Brown - Flossie Lou
TTITLE12=Randy Brecker - Never Tell Her You Love Her
TTITLE13=Play Along - Laura
EXTD=YEAR: 2003
EXTT0=
EXTT1=
EXTT2=
EXTT3=
EXTT4=
EXTT5=
EXTT6=
EXTT7=
EXTT8=
EXTT9=
EXTT10=
EXTT11=
EXTT12=
EXTT13=
PLAYORDER=
